<?xml version="1.0" encoding="utf-8"?>
<!-- Generator: Adobe Illustrator 24.0.1, SVG Export Plug-In . SVG Version: 6.00 Build 0)  -->
<svg version="1.1" id="Calque_1" xmlns="http://www.w3.org/2000/svg" xmlns:xlink="http://www.w3.org/1999/xlink" x="0px" y="0px"
	 viewBox="0 0 180 56" style="enable-background:new 0 0 180 56;" xml:space="preserve">
<style type="text/css">
	.st0{fill:#FFFFFF;}
	.st1{fill:#FFD500;}
</style>
<g>
	<g>
		<path class="st0" d="M7.67,11.57h12.24l-0.93,4.4h-6.86l-0.75,3.53h6.43l-0.9,4.23h-6.42l-1.81,8.51H3.28L7.67,11.57z"/>
		<path class="st0" d="M21.68,11.57h5.38l-4.39,20.66h-5.38L21.68,11.57z"/>
		<path class="st0" d="M31.44,16.14h-4.05l0.97-4.57h13.48l-0.97,4.57h-4.05L33.4,32.23h-5.38L31.44,16.14z"/>
		<path class="st0" d="M43.35,11.57h6.02l0.77,12.73h0.06l2.71-12.73h5.04l-4.39,20.66h-5.9l-0.87-12.76h-0.06l-2.71,12.76h-5.03
			L43.35,11.57z"/>
		<path class="st0" d="M60.77,11.57h12.24l-0.94,4.4h-6.86l-0.75,3.53h6.42l-0.9,4.23h-6.43l-0.87,4.11h7.12l-0.93,4.4h-12.5
			L60.77,11.57z"/>
		<path class="st0" d="M82.31,17.53l0.1-0.49c0.26-1.22-0.02-2.23-1.06-2.23c-1.16,0-1.87,0.9-2.06,1.82
			c-0.87,4.08,8.35,2.08,6.75,9.64c-0.94,4.4-3.93,6.37-8.67,6.37c-4.46,0-6.62-1.53-5.71-5.82l0.15-0.72h5.21l-0.1,0.49
			c-0.37,1.77,0.21,2.4,1.25,2.4c1.1,0,1.92-0.87,2.16-2c0.87-4.08-8.01-2.05-6.46-9.38c0.88-4.17,3.6-6.45,8.14-6.45
			c4.69,0,6.27,1.94,5.33,6.37H82.31z"/>
		<path class="st0" d="M98.13,17.53l0.11-0.49c0.26-1.22-0.02-2.23-1.06-2.23c-1.16,0-1.87,0.9-2.06,1.82
			c-0.87,4.08,8.35,2.08,6.75,9.64c-0.93,4.4-3.93,6.37-8.67,6.37c-4.46,0-6.62-1.53-5.71-5.82l0.15-0.72h5.21l-0.1,0.49
			c-0.37,1.77,0.21,2.4,1.26,2.4c1.1,0,1.92-0.87,2.16-2c0.87-4.08-8.01-2.05-6.46-9.38c0.89-4.17,3.6-6.45,8.14-6.45
			c4.69,0,6.27,1.94,5.33,6.37H98.13z"/>
		<path class="st0" d="M114.8,11.57h8.07c4.11,0,5.38,2.75,4.61,6.37c-0.9,4.22-3.77,6.42-8.14,6.42h-1.88l-1.67,7.87h-5.38
			L114.8,11.57z M118.28,20.48h1.01c1.36,0,2.25-0.78,2.62-2.52c0.36-1.71-0.19-2.52-1.55-2.52h-1.01L118.28,20.48z"/>
		<path class="st0" d="M133.15,11.57h6.77l0.64,20.66h-5.73l0.22-3.62h-4.28l-1.32,3.62h-5.73L133.15,11.57z M135.66,15.79h-0.06
			l-3.34,8.77h3.01L135.66,15.79z"/>
		<path class="st0" d="M146.14,11.57h8.42c4.11,0,5.18,2.32,4.5,5.5c-0.58,2.75-2.04,4.54-4.58,4.92l-0.01,0.06
			c2.56,0.23,2.99,1.88,2.4,4.63l-0.38,1.77c-0.23,1.07-0.52,2.46-0.35,2.86c0.1,0.23,0.16,0.46,0.47,0.64l-0.06,0.29h-5.73
			c-0.29-1.1,0.13-3.07,0.32-3.94l0.29-1.39c0.5-2.34,0.17-2.95-1.14-2.95h-1.42l-1.76,8.28h-5.38L146.14,11.57z M149.66,20.31h1.07
			c1.53,0,2.47-0.98,2.78-2.46c0.36-1.68-0.15-2.4-1.78-2.4h-1.04L149.66,20.31z"/>
		<path class="st0" d="M162.84,11.57h5.38l-1.69,7.93h0.06l5.68-7.93H178l-7.13,9.03l3.37,11.63h-6.13l-1.62-7.21l-1.5,1.74
			l-1.16,5.47h-5.38L162.84,11.57z"/>
	</g>
	<polygon class="st1" points="172.97,38.54 2,38.54 2.42,36.57 173.39,36.57 	"/>
	<g>
		<path class="st0" d="M36.26,43.21h1.42c1.15,0,1.94,0.79,1.94,1.81v0.01c0,1.03-0.79,1.82-1.94,1.82h-1.42V43.21z M37.07,43.93
			v2.2h0.62c0.66,0,1.1-0.44,1.1-1.09v-0.01c0-0.65-0.44-1.1-1.1-1.1H37.07z"/>
		<path class="st0" d="M42.52,43.21h2.75v0.71h-1.95v0.74h1.72v0.71h-1.72v0.77h1.98v0.71h-2.77V43.21z"/>
		<path class="st0" d="M47.95,46.32l0.47-0.57c0.33,0.27,0.67,0.44,1.09,0.44c0.33,0,0.53-0.13,0.53-0.34v-0.01
			c0-0.2-0.12-0.31-0.73-0.46c-0.73-0.19-1.21-0.39-1.21-1.11v-0.01c0-0.66,0.53-1.1,1.28-1.1c0.53,0,0.98,0.17,1.35,0.46l-0.42,0.6
			c-0.32-0.22-0.64-0.36-0.95-0.36c-0.31,0-0.47,0.14-0.47,0.32v0.01c0,0.24,0.16,0.32,0.79,0.48c0.74,0.19,1.16,0.46,1.16,1.09
			v0.01c0,0.72-0.55,1.13-1.34,1.13C48.94,46.9,48.38,46.71,47.95,46.32z"/>
		<path class="st0" d="M54.89,43.18h0.74l1.56,3.67h-0.84l-0.33-0.82h-1.54l-0.33,0.82h-0.82L54.89,43.18z M55.73,45.33l-0.48-1.18
			l-0.48,1.18H55.73z"/>
		<path class="st0" d="M59.94,43.21h2.77v0.73h-1.97v0.78h1.74v0.73h-1.74v1.41h-0.8V43.21z"/>
		<path class="st0" d="M65.57,43.21h0.8v3.64h-0.8V43.21z M66.28,42.11l0.68,0.3l-0.71,0.52h-0.6L66.28,42.11z"/>
		<path class="st0" d="M70.72,43.18h0.74l1.56,3.67h-0.84l-0.33-0.82h-1.54l-0.33,0.82h-0.82L70.72,43.18z M71.56,45.33l-0.48-1.18
			l-0.48,1.18H71.56z"/>
		<path class="st0" d="M76.15,43.95h-1.11v-0.74h3.02v0.74h-1.11v2.9h-0.8V43.95z"/>
		<path class="st0" d="M80.86,43.21h2.75v0.71h-1.95v0.74h1.72v0.71h-1.72v0.77h1.98v0.71h-2.77V43.21z"/>
		<path class="st0" d="M90.11,44.86h1.6v0.76h-1.6V44.86z"/>
		<path class="st0" d="M98.09,46.32l0.47-0.57c0.33,0.27,0.67,0.44,1.09,0.44c0.33,0,0.53-0.13,0.53-0.34v-0.01
			c0-0.2-0.13-0.31-0.73-0.46c-0.73-0.19-1.21-0.39-1.21-1.11v-0.01c0-0.66,0.53-1.1,1.28-1.1c0.53,0,0.98,0.17,1.35,0.46l-0.42,0.6
			c-0.32-0.22-0.64-0.36-0.95-0.36s-0.47,0.14-0.47,0.32v0.01c0,0.24,0.16,0.32,0.79,0.48c0.74,0.19,1.16,0.46,1.16,1.09v0.01
			c0,0.72-0.55,1.13-1.34,1.13C99.09,46.9,98.53,46.71,98.09,46.32z"/>
		<path class="st0" d="M103.8,45.29v-2.08h0.8v2.06c0,0.59,0.3,0.9,0.79,0.9c0.49,0,0.79-0.3,0.79-0.87v-2.09h0.8v2.06
			c0,1.1-0.62,1.65-1.6,1.65C104.4,46.91,103.8,46.36,103.8,45.29z"/>
		<path class="st0" d="M109.98,43.21h1.49c0.87,0,1.4,0.52,1.4,1.26v0.01c0,0.84-0.66,1.28-1.47,1.28h-0.61v1.09h-0.8V43.21z
			 M111.42,45.05c0.4,0,0.64-0.24,0.64-0.55v-0.01c0-0.36-0.25-0.55-0.65-0.55h-0.62v1.11H111.42z"/>
		<path class="st0" d="M115.65,43.21h2.75v0.71h-1.95v0.74h1.72v0.71h-1.72v0.77h1.98v0.71h-2.77V43.21z M117.34,42.11l0.68,0.3
			l-0.71,0.52h-0.6L117.34,42.11z"/>
		<path class="st0" d="M121.32,43.21h1.67c0.46,0,0.82,0.13,1.06,0.37c0.2,0.2,0.31,0.49,0.31,0.83v0.01c0,0.59-0.32,0.96-0.78,1.13
			l0.89,1.3h-0.94l-0.78-1.17h-0.63v1.17h-0.8V43.21z M122.94,44.98c0.39,0,0.61-0.21,0.61-0.52v-0.01c0-0.34-0.24-0.52-0.63-0.52
			h-0.8v1.05H122.94z"/>
		<path class="st0" d="M128.52,43.18h0.74l1.56,3.67h-0.84l-0.33-0.82h-1.54l-0.33,0.82h-0.82L128.52,43.18z M129.37,45.33
			l-0.48-1.18l-0.48,1.18H129.37z"/>
		<path class="st0" d="M133.95,43.95h-1.11v-0.74h3.02v0.74h-1.11v2.9h-0.8V43.95z"/>
		<path class="st0" d="M138.66,43.21h2.75v0.71h-1.95v0.74h1.72v0.71h-1.72v0.77h1.98v0.71h-2.77V43.21z"/>
	</g>
</g>
</svg>
